<svg xmlns="http://www.w3.org/2000/svg" viewBox="0 0 175.7 48.4"><g fill-rule="evenodd" clip-rule="evenodd" fill="#FFF"><path d="M3.5 40.8c.6 1.6 1 3.1 1.6 5.3.8-2 1.8-3.7 2.5-5.3h2.7c1 1.6 1.8 3.3 2.7 5.3.4-2 1-3.7 1.4-5.3h3.1l-2.7 7.4h-3.9c-.6-1.4-1.4-2.7-2.1-4.5-.8 1.8-1.4 3.1-2.1 4.5H2.9L0 40.8h3.5zM29.5 48.2h-3.4v-3.3h-3.5v3.3h-3.5v-7.4h3.5v2.5h3.5v-2.5h3.4v7.4M32 40.8h3.5v7.4H32v-7.4M44.3 42.3c-.4-.2-1-.4-1.8-.4-.6 0-1 .2-1 .6 0 .4 1 .8 2.1 1.4 1.4 1 1.8 1.6 1.8 2.3 0 .6-.8 2.1-4.3 2.1-1.2 0-2.5-.2-3.5-.8l1.2-1.2c.4.2 1 .6 1.8.6s1.6-.2 1.6-.8c0-.6-1.2-1.2-2-1.6-1.4-.8-2-1.2-2-2.1 0-1.2 1.8-2 3.9-2 1.6 0 2.5.4 2.9.6l-.7 1.3zM50.1 48.2v-6.1h-3.3v-1.3h10v1.3h-3.4v6.1h-3.3M58.5 40.8h3.3v6h4.1v1.4h-7.4v-7.4M74.9 42.1h-3.5v1.6h3.5v1.4h-3.5v1.7h4.3v1.4h-7.6v-7.4h6.8v1.3M81.1 42.1h.8c.8 0 1.6.2 1.6 1 0 .4-.6.8-1.4.8h-1v-1.8zm-3.5 6.1h3.5v-2.7h.8l1.8 2.7h3.7l-2.5-3.3c1.2-.4 2-1 2-2.1 0-1.2-1.4-2-4.1-2h-5.1v7.4h-.1zM156.8 9.4C155.5 2 132.1-1.9 106.5 1 87.4 3.1 80.9 6.6 80.9 6.6c-.2.2-.2.2-.2.4s.2.2.6.2l2.5-.6c4.5-1 9-2 18.5-2.7 25.6-2.1 37.5 2 38.2 7 .6 4.5-8.4 10.9-29.6 14.8-7.2 1.2-8.6-1.4-9.9-4.1-1-2.1-2-4.1-5.5-4.7-8.4-1-18.5 2.5-25.9 5.3-2.5.8-4.7 1.6-6.4 2-1.8.4-2.9.4-3.3 0-.6-.8.2-2.1.8-3.7.8-2.3 1.8-4.7.8-6.4-.8-1.2-2.3-2-5.1-2.1-9.4-.6-32.4 9.8-33 10.5v.2c.4.4 3.9.4 4.7.2 4.7-1.6 13.1-4.3 16.6-4.5 1 0 1.8.2 2.1.6.6.8.4 2 .2 3.1-.2 1.6-.6 3.3.6 4.5 1 1.2 2.9 1.6 6 1.6 5.7-.2 11.7-2 17.2-3.5 4.9-1.4 9.4-2.7 12.9-2.7 2.1 0 3.3 1 4.7 2.3 3.5 3.3 8.8 8.4 34.7 2.3 22.8-5.5 34.7-11.6 33.7-17.2zM93.2 44.9h1c1.2 0 2 .4 2 1.2 0 .8-.8 1.4-2 1.4h-1v-2.6zm1.2 3.5c2.3 0 3.9-1 3.9-2.3 0-1.2-1.4-1.8-2.7-2 .8 0 2.1-.6 2.1-1.8 0-1-1.2-1.6-2.9-1.6h-3.5v7.6h3.1v.1zm-1.2-6.9h1c1 0 1.6.4 1.6 1 0 .8-.8 1.4-2 1.4h-.6v-2.4zM111.4 40.8h-1.6l-3.5 6.4H102v-6.4h-2v7.6h7.4l1-2.1h3.5l1 2.1h2.3l-3.8-7.6zm-2.4 4.5c.6-1 1-2 1.4-3.1.6 1.2 1 2.1 1.4 3.1H109zM123.1 42.1c-.6-.2-1.4-.6-2.1-.6-2 0-3.3 1.2-3.3 2.9 0 1.8 1.6 2.9 3.5 2.9.8 0 1.4-.2 2-.4l.6.8c-.6.4-1.8.6-2.7.6-3.3 0-5.5-1.8-5.5-3.9 0-2.1 2.1-3.9 5.5-3.9 1.2 0 2.1.2 2.7.6l-.7 1zM127.4 43.9l3.5-3.1h1.9l-3.3 3.5 4.1 4.1h-2.5l-3.7-3.9v3.9h-2v-7.6h2v3.1M141.6 42.1c-.4-.2-1.2-.6-2-.6-2.1 0-3.5 1.2-3.5 2.9 0 1.8 1.6 2.9 3.5 2.9.8 0 1.6-.2 2-.4l.6.8c-.6.4-1.6.6-2.5.6-3.5 0-5.7-1.8-5.7-3.9 0-2.1 2.1-3.9 5.7-3.9 1 0 2 .2 2.7.6l-.8 1zM148.4 47.4c-2.1 0-2.9-1.6-2.9-3.1 0-1.4 1-2.7 2.9-2.7 2 0 2.7 1.4 2.7 2.7.1 1.5-.5 3.1-2.7 3.1zm0 1c2.9 0 4.9-1.8 4.9-4.1 0-2-2.1-3.7-4.9-3.7-2.9 0-4.9 1.8-4.9 3.7.1 2.3 1.8 4.1 4.9 4.1zM166.4 48.4h-2v-6h-.2c-1 2.1-2.1 4.1-3.3 6h-1c-1-2-2.1-3.9-3.1-6v6H155v-7.6h2.5c1 1.8 2.7 4.7 3.1 5.7.4-1 2.1-3.9 3.3-5.7h2.3v7.6h.2zM170.7 44.9h1c1.2 0 2 .4 2 1.2 0 .8-.8 1.4-2 1.4h-1v-2.6zm1.3 3.5c2.3 0 3.7-1 3.7-2.3 0-1.2-1.4-1.8-2.5-2 .6 0 2-.6 2-1.8 0-1-1.2-1.6-2.9-1.6h-3.5v7.6h3.2v.1zm-1.3-6.9h1c1 0 1.6.4 1.6 1 0 .8-.8 1.4-2 1.4h-.6v-2.4z"/></g></svg>