<?xml version="1.0" encoding="utf-8"?>
<!-- Generator: Adobe Illustrator 19.1.0, SVG Export Plug-In . SVG Version: 6.00 Build 0)  -->
<svg version="1.1" id="Layer_1" xmlns="http://www.w3.org/2000/svg" xmlns:xlink="http://www.w3.org/1999/xlink" x="0px" y="0px"
	 viewBox="0 0 175.7 48.4" enable-background="new 0 0 175.7 48.4" xml:space="preserve">
<g>
	<path fill-rule="evenodd" clip-rule="evenodd" fill="#FFFFFF" d="M3.5,40.8c0.6,1.6,1,3.1,1.6,5.3l0,0c0.8-2,1.8-3.7,2.5-5.3h2.7
		c1,1.6,1.8,3.3,2.7,5.3l0,0c0.4-2,1-3.7,1.4-5.3h3.1l-2.7,7.4h-3.9c-0.6-1.4-1.4-2.7-2.1-4.5l0,0c-0.8,1.8-1.4,3.1-2.1,4.5H2.9
		L0,40.8H3.5L3.5,40.8z"/>
	<polygon fill-rule="evenodd" clip-rule="evenodd" fill="#FFFFFF" points="29.5,48.2 26.1,48.2 26.1,44.9 22.6,44.9 22.6,48.2 
		19.1,48.2 19.1,40.8 22.6,40.8 22.6,43.3 26.1,43.3 26.1,40.8 29.5,40.8 29.5,48.2 	"/>
	<polygon fill-rule="evenodd" clip-rule="evenodd" fill="#FFFFFF" points="32,40.8 35.5,40.8 35.5,48.2 32,48.2 32,40.8 	"/>
	<path fill-rule="evenodd" clip-rule="evenodd" fill="#FFFFFF" d="M44.3,42.3c-0.4-0.2-1-0.4-1.8-0.4c-0.6,0-1,0.2-1,0.6
		c0,0.4,1,0.8,2.1,1.4c1.4,1,1.8,1.6,1.8,2.3c0,0.6-0.8,2.1-4.3,2.1c-1.2,0-2.5-0.2-3.5-0.8l1.2-1.2c0.4,0.2,1,0.6,1.8,0.6
		c0.8,0,1.6-0.2,1.6-0.8c0-0.6-1.2-1.2-2-1.6c-1.4-0.8-2-1.2-2-2.1c0-1.2,1.8-2,3.9-2c1.6,0,2.5,0.4,2.9,0.6L44.3,42.3L44.3,42.3z"
		/>
	<polygon fill-rule="evenodd" clip-rule="evenodd" fill="#FFFFFF" points="50.1,48.2 50.1,42.1 46.8,42.1 46.8,40.8 56.8,40.8 
		56.8,42.1 53.4,42.1 53.4,48.2 50.1,48.2 	"/>
	<polygon fill-rule="evenodd" clip-rule="evenodd" fill="#FFFFFF" points="58.5,40.8 61.8,40.8 61.8,46.8 65.9,46.8 65.9,48.2 
		58.5,48.2 58.5,40.8 	"/>
	<polygon fill-rule="evenodd" clip-rule="evenodd" fill="#FFFFFF" points="74.9,42.1 71.4,42.1 71.4,43.7 74.9,43.7 74.9,45.1 
		71.4,45.1 71.4,46.8 75.7,46.8 75.7,48.2 68.1,48.2 68.1,40.8 74.9,40.8 74.9,42.1 	"/>
	<path fill-rule="evenodd" clip-rule="evenodd" fill="#FFFFFF" d="M81.1,42.1h0.8c0.8,0,1.6,0.2,1.6,1c0,0.4-0.6,0.8-1.4,0.8h-1
		V42.1L81.1,42.1z M77.6,48.2h3.5v-2.7h0.8l1.8,2.7h3.7l-2.5-3.3c1.2-0.4,2-1,2-2.1c0-1.2-1.4-2-4.1-2h-5.1V48.2L77.6,48.2z"/>
	<path fill-rule="evenodd" clip-rule="evenodd" fill="#FFFFFF" d="M156.8,9.4C155.5,2,132.1-1.9,106.5,1C87.4,3.1,80.9,6.6,80.9,6.6
		c-0.2,0.2-0.2,0.2-0.2,0.4c0,0.2,0.2,0.2,0.6,0.2l2.5-0.6c4.5-1,9-2,18.5-2.7c25.6-2.1,37.5,2,38.2,7c0.6,4.5-8.4,10.9-29.6,14.8
		c-7.2,1.2-8.6-1.4-9.9-4.1c-1-2.1-2-4.1-5.5-4.7c-8.4-1-18.5,2.5-25.9,5.3c-2.5,0.8-4.7,1.6-6.4,2c-1.8,0.4-2.9,0.4-3.3,0
		c-0.6-0.8,0.2-2.1,0.8-3.7c0.8-2.3,1.8-4.7,0.8-6.4c-0.8-1.2-2.3-2-5.1-2.1c-9.4-0.6-32.4,9.8-33,10.5l0,0v0.2
		c0.4,0.4,3.9,0.4,4.7,0.2c4.7-1.6,13.1-4.3,16.6-4.5c1,0,1.8,0.2,2.1,0.6c0.6,0.8,0.4,2,0.2,3.1c-0.2,1.6-0.6,3.3,0.6,4.5
		c1,1.2,2.9,1.6,6,1.6c5.7-0.2,11.7-2,17.2-3.5c4.9-1.4,9.4-2.7,12.9-2.7c2.1,0,3.3,1,4.7,2.3c3.5,3.3,8.8,8.4,34.7,2.3
		C145.9,21.1,157.8,15,156.8,9.4L156.8,9.4z"/>
	<path fill-rule="evenodd" clip-rule="evenodd" fill="#FFFFFF" d="M93.2,44.9h1c1.2,0,2,0.4,2,1.2c0,0.8-0.8,1.4-2,1.4h-1V44.9
		L93.2,44.9z M94.4,48.4c2.3,0,3.9-1,3.9-2.3c0-1.2-1.4-1.8-2.7-2l0,0c0.8,0,2.1-0.6,2.1-1.8c0-1-1.2-1.6-2.9-1.6h-3.5v7.6H94.4
		L94.4,48.4z M93.2,41.5h1c1,0,1.6,0.4,1.6,1c0,0.8-0.8,1.4-2,1.4h-0.6V41.5L93.2,41.5z"/>
	<path fill-rule="evenodd" clip-rule="evenodd" fill="#FFFFFF" d="M111.4,40.8h-1.6l-3.5,6.4H102v-6.4h-2v7.6h7.4l1-2.1h3.5l1,2.1
		h2.3L111.4,40.8L111.4,40.8z M109,45.3c0.6-1,1-2,1.4-3.1l0,0c0.6,1.2,1,2.1,1.4,3.1H109L109,45.3z"/>
	<path fill-rule="evenodd" clip-rule="evenodd" fill="#FFFFFF" d="M123.1,42.1c-0.6-0.2-1.4-0.6-2.1-0.6c-2,0-3.3,1.2-3.3,2.9
		c0,1.8,1.6,2.9,3.5,2.9c0.8,0,1.4-0.2,2-0.4l0.6,0.8c-0.6,0.4-1.8,0.6-2.7,0.6c-3.3,0-5.5-1.8-5.5-3.9c0-2.1,2.1-3.9,5.5-3.9
		c1.2,0,2.1,0.2,2.7,0.6L123.1,42.1L123.1,42.1z"/>
	<polygon fill-rule="evenodd" clip-rule="evenodd" fill="#FFFFFF" points="127.4,43.9 127.4,43.9 130.9,40.8 132.8,40.8 129.5,44.3 
		133.6,48.4 131.1,48.4 127.4,44.5 127.4,44.5 127.4,48.4 125.4,48.4 125.4,40.8 127.4,40.8 127.4,43.9 	"/>
	<path fill-rule="evenodd" clip-rule="evenodd" fill="#FFFFFF" d="M141.6,42.1c-0.4-0.2-1.2-0.6-2-0.6c-2.1,0-3.5,1.2-3.5,2.9
		c0,1.8,1.6,2.9,3.5,2.9c0.8,0,1.6-0.2,2-0.4l0.6,0.8c-0.6,0.4-1.6,0.6-2.5,0.6c-3.5,0-5.7-1.8-5.7-3.9c0-2.1,2.1-3.9,5.7-3.9
		c1,0,2,0.2,2.7,0.6L141.6,42.1L141.6,42.1z"/>
	<path fill-rule="evenodd" clip-rule="evenodd" fill="#FFFFFF" d="M148.4,47.4c-2.1,0-2.9-1.6-2.9-3.1c0-1.4,1-2.7,2.9-2.7
		c2,0,2.7,1.4,2.7,2.7C151.2,45.8,150.6,47.4,148.4,47.4L148.4,47.4z M148.4,48.4c2.9,0,4.9-1.8,4.9-4.1c0-2-2.1-3.7-4.9-3.7
		c-2.9,0-4.9,1.8-4.9,3.7C143.6,46.6,145.3,48.4,148.4,48.4L148.4,48.4z"/>
	<path fill-rule="evenodd" clip-rule="evenodd" fill="#FFFFFF" d="M166.4,48.4h-2v-6h-0.2c-1,2.1-2.1,4.1-3.3,6h-1
		c-1-2-2.1-3.9-3.1-6l0,0v6h-1.8v-7.6h2.5c1,1.8,2.7,4.7,3.1,5.7l0,0c0.4-1,2.1-3.9,3.3-5.7h2.3V48.4L166.4,48.4z"/>
	<path fill-rule="evenodd" clip-rule="evenodd" fill="#FFFFFF" d="M170.7,44.9h1c1.2,0,2,0.4,2,1.2c0,0.8-0.8,1.4-2,1.4h-1V44.9
		L170.7,44.9z M172,48.4c2.3,0,3.7-1,3.7-2.3c0-1.2-1.4-1.8-2.5-2l0,0c0.6,0,2-0.6,2-1.8c0-1-1.2-1.6-2.9-1.6h-3.5v7.6H172L172,48.4
		z M170.7,41.5h1c1,0,1.6,0.4,1.6,1c0,0.8-0.8,1.4-2,1.4h-0.6V41.5L170.7,41.5z"/>
</g>
</svg>
